<svg xmlns="http://www.w3.org/2000/svg" viewBox="0 0 48 48" fill="none">
  <path fill="#2563EB" d="M42 24c0-2.5-1.5-4.5-3.8-5.4.3-.9.5-1.9.5-2.9 0-5.2-4.2-9.4-9.4-9.4-2.8 0-5.4 1.2-7.1 3.2C20.6 9 18.8 8 16.8 8c-5 0-9 4-9 9 0 .7.1 1.4.3 2-3.5.8-6.1 3.9-6.1 7.6 0 4.3 3.5 7.8 7.8 7.8h24.7c4.3 0 7.8-3.5 7.8-7.8 0-1.6-.5-3.1-1.4-4.3 1.6-.5 2.9-1.9 2.9-3.7z"/>
  <path fill="#2563EB" d="M36 18c0 .5-.1 1-.2 1.5.8-.4 1.7-.6 2.7-.6.3 0 .5 0 .8.1-.3-.8-.8-1.5-1.4-2.1-1-1-2.3-1.6-3.7-1.8.3.9.5 1.9.5 2.9z"/>
  <ellipse cx="38" cy="24" rx="2.5" ry="2.5" fill="white"/>
  <ellipse cx="38" cy="24" rx="1" ry="1" fill="#2563EB"/>
</svg>
